<svg width="65" height="65" viewBox="0 0 65 65" fill="none" xmlns="http://www.w3.org/2000/svg">
<path d="M58.7899 54.9602L53.3109 49.4813C57.3746 44.7588 59.6005 38.7302 59.5807 32.5C59.5807 21.4202 52.8857 12.3148 43.3334 8.125V13.5417C49.7982 17.2954 54.164 24.5023 54.164 32.5C54.1522 37.3115 52.5613 41.9861 49.6357 45.806L46.1555 42.3258C47.7859 39.3683 48.7501 35.7229 48.7501 32.5C48.7501 27.7035 46.6511 21.9375 43.3334 18.9583V39.5038L37.9167 34.0871V10.8333C37.9165 10.3434 37.7834 9.86278 37.5315 9.44256C37.2797 9.02235 36.9186 8.6783 36.4867 8.44707C36.0549 8.21584 35.5683 8.10608 35.079 8.12949C34.5897 8.1529 34.1158 8.30859 33.708 8.58L20.9274 17.0977L10.0399 6.21021L6.21029 10.0398L54.9603 58.7898L58.7899 54.9602ZM32.5001 15.8925V28.6704L24.8328 21.0031L32.5001 15.8925ZM10.8334 46.0417H18.1378L33.7053 56.42C34.1136 56.6912 34.5877 56.847 35.0774 56.8708C35.567 56.8946 36.054 56.7857 36.4867 56.5554C36.919 56.324 37.2803 55.9796 37.5322 55.5589C37.784 55.1382 37.9169 54.657 37.9167 54.1667V49.0777L32.5001 43.661V49.1075L20.4615 41.08C20.3938 41.034 20.3099 41.0258 20.2395 40.9906C19.9196 40.8165 19.5675 40.7095 19.2049 40.6765C19.1182 40.6683 19.0451 40.625 18.9584 40.625H10.8334V24.375H13.214L8.40133 19.5623C7.50728 20.0098 6.75493 20.6966 6.22801 21.5463C5.70109 22.396 5.42025 23.3752 5.41675 24.375V40.625C5.41675 43.6123 7.84612 46.0417 10.8334 46.0417Z" fill="#0085FF"/>
</svg>
