<svg width="87" height="87" viewBox="0 0 87 87" fill="none" xmlns="http://www.w3.org/2000/svg">
<path d="M39.1411 68.2015V71.6888C39.1411 72.9728 40.4424 74.0137 42.0471 74.0137H44.9531C46.558 74.0137 47.8591 72.9728 47.8591 71.6888V68.2015H39.1411Z" fill="white"/>
<path d="M47.859 68.2016H39.1408C32.721 68.2016 27.5166 62.9972 27.5166 56.5774V37.6879H59.4832V56.5772C59.4833 62.9971 54.279 68.2016 47.859 68.2016Z" fill="white"/>
<path d="M39.8077 49.0705C37.4354 51.163 36.9319 54.7996 38.9229 57.2575C41.1329 59.9856 45.1473 60.1416 47.5634 57.7252C50.5119 54.7767 51.71 48.1633 52.0567 45.7771C52.1241 45.3139 51.7481 44.9153 51.2818 44.9557C49.0926 45.1465 43.3638 45.9338 39.8077 49.0705Z" fill="#25D366"/>
<path d="M52.057 45.7771C51.7102 48.1635 50.5121 54.7768 47.5637 57.7253C45.296 59.9931 41.6389 59.965 39.3684 57.701L51.8779 45.1915C52.0147 45.3429 52.0896 45.5514 52.057 45.7771Z" fill="#25D366"/>
<path d="M60.9363 37.6879H26.0636C25.2612 37.6879 24.6106 37.0372 24.6106 36.2349V31.8759C24.6106 31.0735 25.2612 30.4229 26.0636 30.4229H60.9363C61.7387 30.4229 62.3893 31.0735 62.3893 31.8759V36.2349C62.3893 37.0374 61.7387 37.6879 60.9363 37.6879Z" fill="white"/>
<path d="M33.3289 1.3623C31.7238 1.3623 30.4229 2.66323 30.4229 4.26831V30.4229H36.235V4.26831C36.2349 2.66323 34.9339 1.3623 33.3289 1.3623Z" fill="white"/>
<path d="M53.6711 1.3623C52.0661 1.3623 50.7651 2.66323 50.7651 4.26831V30.4229H56.5773V4.26831C56.5771 2.66323 55.2762 1.3623 53.6711 1.3623Z" fill="white"/>
<path d="M60.9363 29.0605H57.9394V4.26827C57.9394 1.91468 56.0247 0 53.6711 0C51.3175 0 49.4028 1.91468 49.4028 4.26827V29.0605H37.597V4.26827C37.597 1.91468 35.6823 0 33.3287 0C30.9752 0 29.0605 1.91468 29.0605 4.26827V29.0605H26.0636C24.5112 29.0605 23.2483 30.3234 23.2483 31.8758V36.2348C23.2483 37.7872 24.5112 39.0501 26.0636 39.0501H26.1543V56.5772C26.1543 63.2779 31.2557 68.8088 37.7785 69.4919V71.1075C37.7785 73.4611 39.6932 75.3758 42.0468 75.3758H42.1375V85.6377C42.1375 86.39 42.7473 87 43.4998 87C44.252 87 44.862 86.3902 44.862 85.6377V75.3758H44.9528C47.3063 75.3758 49.221 73.4611 49.221 71.1075V69.4919C55.7438 68.8088 60.8452 63.2781 60.8452 56.5772V39.0501H60.9359C62.4884 39.0501 63.7512 37.7872 63.7512 36.2348V31.8758C63.7516 30.3234 62.4887 29.0605 60.9363 29.0605ZM52.1272 4.26827C52.1272 3.41696 52.8198 2.72436 53.6711 2.72436C54.5224 2.72436 55.215 3.41696 55.215 4.26827V29.0605H52.1274V4.26827H52.1272ZM31.7848 4.26827C31.7848 3.41696 32.4774 2.72436 33.3287 2.72436C34.18 2.72436 34.8726 3.41696 34.8726 4.26827V29.0605H31.785V4.26827H31.7848ZM44.9529 72.6513H42.0469C41.1956 72.6513 40.503 71.9587 40.503 71.1074V69.5635H46.4967V71.1074C46.4968 71.9589 45.8042 72.6513 44.9529 72.6513ZM58.121 56.5772C58.121 62.2356 53.5175 66.8391 47.8591 66.8391H39.1409C33.4825 66.8391 28.879 62.2356 28.879 56.5772V39.0501H58.1212V56.5772H58.121ZM61.027 36.2348C61.027 36.2849 60.9864 36.3256 60.9363 36.3256H26.0636C26.0134 36.3256 25.9728 36.2849 25.9728 36.2348V31.8758C25.9728 31.8257 26.0134 31.7851 26.0636 31.7851H60.9363C60.9864 31.7851 61.027 31.8257 61.027 31.8758V36.2348Z" fill="#0085FF"/>
<path d="M36.2349 62.2985C36.5834 62.2985 36.9321 62.1656 37.198 61.8995L39.4831 59.6144C40.6916 60.4319 42.0955 60.8421 43.5 60.8421C45.3372 60.8421 47.1744 60.1429 48.5731 58.7441C53.2607 54.0565 53.5689 45.3609 53.5798 44.993C53.5914 44.5998 53.4325 44.2209 53.1441 43.9537C52.8558 43.6865 52.466 43.5565 52.0745 43.5983C51.9766 43.6086 49.6465 43.8608 46.8315 44.5745C42.9371 45.5621 40.1093 46.9157 38.427 48.5981C35.9591 51.0658 35.6699 54.8986 37.5567 57.688L35.2716 59.9731C34.7396 60.5052 34.7396 61.3677 35.2716 61.8995C35.5377 62.1656 35.8864 62.2985 36.2349 62.2985ZM40.3534 50.5248C42.5748 48.3034 47.6463 47.055 50.7182 46.5394C50.4176 49.0772 49.4843 53.98 46.6467 56.8179C45.2475 58.217 43.142 58.486 41.469 57.6289L45.9163 53.1815C46.4484 52.6495 46.4484 51.787 45.9163 51.2551C45.3843 50.7231 44.5218 50.7231 43.9899 51.2551L39.5426 55.7025C38.6853 54.0294 38.9545 51.9236 40.3534 50.5248Z" fill="#0085FF"/>
</svg>
