<svg width="66" height="70" viewBox="0 0 66 70" fill="none" xmlns="http://www.w3.org/2000/svg">
<path d="M2.22313 57.6818C1.12199 57.6818 0.229492 56.789 0.229492 55.6881V7.53484C0.229492 3.38023 3.60959 0 7.7642 0H39.1979C43.3526 0 46.7327 3.38023 46.7327 7.53484V38.7844C46.7327 39.8852 45.8402 40.778 44.7391 40.778C43.638 40.778 42.7455 39.8852 42.7455 38.7844V7.53484C42.7455 5.57853 41.1539 3.98713 39.1978 3.98713H7.7642C5.80803 3.98713 4.21676 5.5784 4.21676 7.53484V55.6881C4.21676 56.7893 3.32398 57.6818 2.22313 57.6818Z" fill="#0085FF"/>
<path d="M2.22314 55.041V62.4651C2.22314 65.5256 4.70404 68.0065 7.76449 68.0065H39.1982C42.2586 68.0065 44.7395 65.5256 44.7395 62.4651V55.041H2.22314Z" fill="white"/>
<path d="M39.1979 70.0001H7.7642C3.60945 70.0001 0.229492 66.6198 0.229492 62.4652V55.0411C0.229492 53.9403 1.12199 53.0475 2.22312 53.0475H44.7394C45.8405 53.0475 46.733 53.9403 46.733 55.0411V62.4652C46.7329 66.6198 43.3529 70.0001 39.1979 70.0001ZM4.21676 57.0348V62.4652C4.21676 64.4215 5.80803 66.0129 7.7642 66.0129H39.1979C41.1541 66.0129 42.7456 64.4217 42.7456 62.4652V57.0348H4.21676Z" fill="#0085FF"/>
<path d="M26.7681 63.4845H20.365C19.2638 63.4845 18.3713 62.5917 18.3713 61.4908C18.3713 60.39 19.2638 59.4972 20.365 59.4972H26.7681C27.8692 59.4972 28.7617 60.39 28.7617 61.4908C28.7617 62.5918 27.869 63.4845 26.7681 63.4845Z" fill="#0085FF"/>
<path d="M44.7392 59.5197C43.6381 59.5197 42.7456 58.627 42.7456 57.5261V48.3944C42.7456 47.2935 43.6381 46.4008 44.7392 46.4008C45.8404 46.4008 46.7329 47.2935 46.7329 48.3944V57.5262C46.7329 58.627 45.8404 59.5197 44.7392 59.5197Z" fill="#0085FF"/>
<path d="M58.6194 47.6666C58.0516 47.6666 57.4881 47.4256 57.0936 46.9573C56.3843 46.1153 56.4919 44.8576 57.3341 44.1482C57.6129 43.9133 57.8802 43.6686 58.1287 43.4199C63.0037 38.5449 63.0037 30.6122 58.1286 25.7369C57.3501 24.9585 57.3501 23.696 58.1286 22.9174C58.9071 22.1391 60.1693 22.1393 60.948 22.9174C67.3776 29.3474 67.3776 39.8094 60.948 46.2394C60.6195 46.5678 60.2678 46.8903 59.9028 47.1978C59.5289 47.5127 59.0728 47.6666 58.6194 47.6666Z" fill="#0085FF"/>
<path d="M53.1528 44.8694C52.5632 44.8694 51.9797 44.6092 51.586 44.1102C50.9042 43.2457 51.0523 41.9921 51.917 41.3103C52.1836 41.0998 52.4392 40.8734 52.6762 40.6363C56.0164 37.296 56.0164 31.8603 52.6758 28.52C51.8973 27.7415 51.8973 26.4791 52.6758 25.7005C53.4543 24.9221 54.7168 24.9221 55.4954 25.7005C60.3906 30.5957 60.3906 38.5608 55.4954 43.4563C55.1478 43.8034 54.7751 44.1345 54.3863 44.4409C54.0202 44.7297 53.5849 44.8694 53.1528 44.8694Z" fill="#0085FF"/>
</svg>
