<svg width="65" height="65" viewBox="0 0 65 65" fill="none" xmlns="http://www.w3.org/2000/svg">
<path d="M41.1667 62.8333H39C39 63.6541 39.4637 64.4042 40.1977 64.7712C40.9318 65.1382 41.8101 65.0589 42.4667 64.5667L41.1667 62.8333ZM49.8333 56.3333L51.1333 54.6C50.3629 54.0224 49.3038 54.0224 48.5333 54.6L49.8333 56.3333ZM58.5 62.8333L57.2 64.5667C57.8565 65.0589 58.7349 65.1382 59.4689 64.7712C60.203 64.4042 60.6667 63.6541 60.6667 62.8333H58.5ZM49.8333 47.6667C43.8503 47.6667 39 42.8164 39 36.8333H34.6667C34.6667 45.2097 41.457 52 49.8333 52V47.6667ZM60.6667 36.8333C60.6667 42.8164 55.8164 47.6667 49.8333 47.6667V52C58.2097 52 65 45.2097 65 36.8333H60.6667ZM49.8333 26C55.8164 26 60.6667 30.8503 60.6667 36.8333H65C65 28.457 58.2097 21.6667 49.8333 21.6667V26ZM49.8333 21.6667C41.457 21.6667 34.6667 28.457 34.6667 36.8333H39C39 30.8503 43.8503 26 49.8333 26V21.6667ZM39 45.5V62.8333H43.3333V45.5H39ZM42.4667 64.5667L51.1333 58.0667L48.5333 54.6L39.8667 61.1L42.4667 64.5667ZM48.5333 58.0667L57.2 64.5667L59.8 61.1L51.1333 54.6L48.5333 58.0667ZM60.6667 62.8333V45.5H56.3333V62.8333H60.6667ZM65 21.6667V6.5H60.6667V21.6667H65ZM58.5 0H6.5V4.33333H58.5V0ZM0 6.5V58.5H4.33333V6.5H0ZM6.5 65H34.6667V60.6667H6.5V65ZM0 58.5C0 62.0897 2.91015 65 6.5 65V60.6667C5.30339 60.6667 4.33333 59.6964 4.33333 58.5H0ZM6.5 0C2.91015 0 0 2.91015 0 6.5H4.33333C4.33333 5.30339 5.30339 4.33333 6.5 4.33333V0ZM65 6.5C65 2.91015 62.0897 0 58.5 0V4.33333C59.6964 4.33333 60.6667 5.30339 60.6667 6.5H65ZM13 21.6667H34.6667V17.3333H13V21.6667ZM13 34.6667H26V30.3333H13V34.6667Z" fill="#0085FF"/>
</svg>
