<svg width="58" height="68" viewBox="0 0 58 68" fill="none" xmlns="http://www.w3.org/2000/svg">
<path d="M18.2296 40.2223C19.8294 40.2223 21.5903 40.3784 23.1979 40.6738V35.8581H34.9104V44.4527C36.2883 44.9587 37.2944 45.5043 38.239 46.1905C40.0296 47.4913 41.0137 49.1988 41.0727 51.0716C43.352 50.5331 45.4426 49.62 47.2516 48.3762C47.9052 47.927 48.6897 47.5338 49.149 47.1964V33.8206L28.9997 11.3059L8.5 33.9563V42.051C9.87793 41.7017 11.1337 41.3262 12.5892 40.9294C14.3107 40.4602 16.2212 40.2223 18.2296 40.2223Z" fill="#0085FF"/>
<path d="M29.0912 5.81326L51.8693 31.265H57.0644L29.0455 0L17.4564 12.7624V7.61054H8.95918V22.1512L0.787354 31.265H6.05633L29.0912 5.81326Z" fill="#0085FF"/>
<path d="M54.4997 49.36C53.238 49.36 51.5394 49.9203 49.3809 51.4041C45.435 54.1166 40.6046 55.311 36.1911 55.311C32.6032 55.311 29.2911 54.5222 26.9521 53.1188C25.7932 52.4234 25.7967 52.1912 26.4689 52.1912C27.8188 52.1912 31.8667 53.1279 34.6099 53.1279C35.9598 53.1279 36.9935 52.9013 37.2353 52.2245C38.3531 49.0947 34.0199 48.087 29.4891 46.2534C26.1719 44.9104 22.1233 43.8967 18.2679 43.8965C16.6605 43.8965 15.0725 44.0726 13.5985 44.4745C6.90615 46.2991 2.07007 47.6736 0.692139 48.1198V65.6839C3.448 64.6704 6.64021 63.6992 8.45678 63.6992C11.7905 63.6992 25.2797 67.9997 32.9174 67.9997C33.9871 67.9997 34.945 67.9154 35.7417 67.7232C42.2241 66.1583 53.4784 56.9926 56.533 53.8633C57.9996 52.3609 57.4195 49.36 54.4997 49.36Z" fill="#0085FF"/>
</svg>
