<svg width="82" height="82" viewBox="0 0 82 82" fill="none" xmlns="http://www.w3.org/2000/svg">
<path d="M46.6671 15.1072C46.6671 6.77616 39.9157 0 31.5865 0C23.2573 0 16.5059 6.77793 16.5059 15.1072V49.0429C13.3306 52.6544 11.6445 57.2339 11.6445 62.0598C11.6445 73.0555 20.5766 82 31.5705 82C42.5681 82 51.509 73.0555 51.509 62.0598C51.509 57.2427 49.8442 52.6632 46.6689 49.0447V15.1072H46.6671ZM31.5581 76.6422C23.5196 76.6422 16.9811 70.1036 16.9811 62.0616C16.9811 58.2569 18.4207 54.6667 21.0535 51.947C21.5375 51.447 21.7981 50.7786 21.7981 50.0836V15.1072C21.7981 9.73341 26.1471 5.35958 31.5209 5.35958C36.8947 5.35958 41.2419 9.73341 41.2419 15.1072V50.0836C41.2419 50.7786 41.5433 51.447 42.0273 51.9434C44.6583 54.6755 46.1263 58.2675 46.1263 62.0616C46.1246 70.1001 39.6002 76.6422 31.5581 76.6422Z" fill="#0085FF"/>
<path d="M36.0827 53.5108V41.2226C36.0827 38.7546 34.0527 36.7548 31.5847 36.7548C29.1168 36.7548 27.0886 38.7546 27.0886 41.2226V53.5108C24.1774 55.1046 22.1013 58.241 22.1013 61.8453C22.1013 67.0684 26.3351 71.3004 31.5582 71.3004C36.7794 71.3004 41.0416 67.0666 41.0416 61.8453C41.0434 58.241 38.9938 55.1064 36.0827 53.5108Z" fill="#0085FF"/>
<path d="M55.1648 9.99757H67.6729C69.155 9.99757 70.3571 8.76715 70.3571 7.28498C70.3571 5.80458 69.155 4.57239 67.6729 4.57239H55.1648C53.6844 4.57239 52.4841 5.80458 52.4841 7.28498C52.4859 8.76538 53.6844 9.99757 55.1648 9.99757Z" fill="#0085FF"/>
<path d="M67.6711 17.1389H55.1631C53.6827 17.1389 52.4824 18.3037 52.4824 19.7841C52.4824 21.2663 53.6827 22.4311 55.1631 22.4311H67.6711C69.1533 22.4311 70.3554 21.2663 70.3554 19.7841C70.3536 18.3037 69.1533 17.1389 67.6711 17.1389Z" fill="#0085FF"/>
<path d="M67.6711 29.5743H55.1631C53.6827 29.5743 52.4824 30.8048 52.4824 32.2852C52.4824 33.7656 53.6827 34.996 55.1631 34.996H67.6711C69.1533 34.996 70.3554 33.7656 70.3554 32.2852C70.3554 30.8048 69.1533 29.5743 67.6711 29.5743Z" fill="#0085FF"/>
<path d="M67.6711 42.1409H55.1631C53.6827 42.1409 52.4824 43.3075 52.4824 44.7879C52.4824 46.27 53.6827 47.4331 55.1631 47.4331H67.6711C69.1533 47.4331 70.3554 46.27 70.3554 44.7879C70.3536 43.3075 69.1533 42.1409 67.6711 42.1409Z" fill="#0085FF"/>
</svg>
